HIERARCHY
ROOT root
{
	OFFSET	0	13.1	24.9
	CHANNELS 6  Xposition Yposition Zposition Xrotation Yrotation Zrotation
	JOINT spine_1
	{
		OFFSET	0	9.99999	0
		CHANNELS 3  Xrotation Yrotation Zrotation
		JOINT spine_2
		{
			OFFSET	0	112	-10
			CHANNELS 3  Xrotation Yrotation Zrotation
			JOINT spine_3
			{
				OFFSET	0	206.5	19.3
				CHANNELS 3  Xrotation Yrotation Zrotation
				JOINT spine_4
				{
					OFFSET	0	110.4	14.6
					CHANNELS 3  Xrotation Yrotation Zrotation
					JOINT neck_1
					{
						OFFSET	0	71.8	-50.3
						CHANNELS 3  Xrotation Yrotation Zrotation
						JOINT neck_2
						{
							OFFSET	0	86.2	-25.8
							CHANNELS 3  Xrotation Yrotation Zrotation
							JOINT head_ee
							{
								OFFSET	0	179.8	-8.7
								CHANNELS 3  Xrotation Yrotation Zrotation
								End Site
								{
									OFFSET	1	0	0
								}
							}
						}
					}
					JOINT left_clavicle
					{
						OFFSET	-43.2	22.4	-70.8
						CHANNELS 3  Xrotation Yrotation Zrotation
						JOINT left_shoulder
						{
							OFFSET	-93.9	-5.79999	48.7
							CHANNELS 3  Xrotation Yrotation Zrotation
							JOINT left_elbow
							{
								OFFSET	-291.4	-30.8	15.2
								CHANNELS 3  Xrotation Yrotation Zrotation
								JOINT left_lowarm_twist
								{
									OFFSET	-110.7	-3.89999	13.6
									CHANNELS 3  Xrotation Yrotation Zrotation
									JOINT left_hand
									{
										OFFSET	-110.7	-3.89999	13.6
										CHANNELS 3  Xrotation Yrotation Zrotation
										JOINT left_ee
										{
											OFFSET	-80.8	-5.10001	12.1
											CHANNELS 3  Xrotation Yrotation Zrotation
											End Site
											{
												OFFSET	1	0	0
											}
										}
									}
								}
							}
						}
					}
					JOINT right_clavicle
					{
						OFFSET	43.2	22.4	-70.8
						CHANNELS 3  Xrotation Yrotation Zrotation
						JOINT right_shoulder
						{
							OFFSET	93.9	-5.79999	48.7
							CHANNELS 3  Xrotation Yrotation Zrotation
							JOINT right_elbow
							{
								OFFSET	291.4	-30.8	15.2
								CHANNELS 3  Xrotation Yrotation Zrotation
								JOINT right_lowarm_twist
								{
									OFFSET	110.7	-3.89999	13.6
									CHANNELS 3  Xrotation Yrotation Zrotation
									JOINT right_hand
									{
										OFFSET	110.7	-3.89999	13.6
										CHANNELS 3  Xrotation Yrotation Zrotation
										JOINT right_ee
										{
											OFFSET	80.8	-5.10001	12.1
											CHANNELS 3  Xrotation Yrotation Zrotation
											End Site
											{
												OFFSET	1	0	0
											}
										}
									}
								}
							}
						}
					}
				}
			}
		}
	}
	JOINT left_hip
	{
		OFFSET	-82.8	-127.5	0.300001
		CHANNELS 3  Xrotation Yrotation Zrotation
		JOINT left_knee
		{
			OFFSET	-28.2	-396.7	2.2
			CHANNELS 3  Xrotation Yrotation Zrotation
			JOINT left_ankle
			{
				OFFSET	-11.7	-411.3	35.4
				CHANNELS 3  Xrotation Yrotation Zrotation
				JOINT left_toes
				{
					OFFSET	0	-60	-88.6
					CHANNELS 3  Xrotation Yrotation Zrotation
					JOINT left_foot_ee
					{
						OFFSET	-22.5	-16.5	-42.2
						CHANNELS 3  Xrotation Yrotation Zrotation
						End Site
						{
							OFFSET	1	0	0
						}
					}
				}
			}
		}
	}
	JOINT right_hip
	{
		OFFSET	82.8	-127.5	0.300001
		CHANNELS 3  Xrotation Yrotation Zrotation
		JOINT right_knee
		{
			OFFSET	28.2	-396.7	2.2
			CHANNELS 3  Xrotation Yrotation Zrotation
			JOINT right_ankle
			{
				OFFSET	11.7	-411.3	35.4
				CHANNELS 3  Xrotation Yrotation Zrotation
				JOINT right_toes
				{
					OFFSET	0	-60	-88.6
					CHANNELS 3  Xrotation Yrotation Zrotation
					JOINT right_foot_ee
					{
						OFFSET	22.5	-16.5	-42.2
						CHANNELS 3  Xrotation Yrotation Zrotation
						End Site
						{
							OFFSET	1	0	0
						}
					}
				}
			}
		}
	}
}
MOTION
Frames: 13
Frame Time: 0.02
3559.89 630.71 -547.106 -28.8371 37.9882 19.3582 8.65641 0.127586 0.571007 8.65659 0.090993 0.577968 8.65717 0.0557916 0.582421 8.65672 0.147072 0.566301 -14.566 8.56693 -3.30822 -14.8195 18.3468 -0.300576 -0.0 0.0 -0.0 4.3575 13.6853 8.76578 -26.1177 -38.5247 44.9497 1.62798 -38.8815 0.574638 -67.9688 -6.28711 5.27941 -10.0169 31.2025 -46.5834 -0.0 0.0 -0.0 11.6604 4.13393 -23.3804 -67.9597 48.6043 -47.2963 0.188999 5.34883 -0.00882834 -26.1183 1.60984 -2.89637 9.61343 23.0961 -63.7194 0.0 0.0 0.0 0.695283 46.6204 9.38839 -9.60402 0.274721 1.44659 32.0672 -14.9374 -4.39054 1.51263 -0.0 -0.0 -0.0 0.0 -0.0 53.491 1.35501 -7.29755 -4.68747 -0.164417 -0.700398 -6.42989 20.7081 -1.09365 -9.62512 0.0 0.0 0.0 0.0 0.0 
3551.88 631.655 -556.275 -28.2518 37.3252 19.1431 8.30325 0.192806 0.54999 8.3034 0.157419 0.561143 8.30465 0.119611 0.570399 8.30425 0.208192 0.544352 -15.8405 9.82898 -4.59286 -16.249 21.4782 -0.821122 -0.0 0.0 -0.0 3.98056 10.5371 8.07546 -23.2226 -34.7489 48.5004 1.5788 -38.0259 0.544053 -62.1156 -5.54697 5.16216 -8.65724 27.143 -41.3304 -0.0 0.0 -0.0 11.2359 3.53494 -22.4315 -63.5621 50.2443 -46.3337 0.196899 5.57103 -0.00958009 -25.9107 1.59202 -2.87659 9.70054 23.6276 -63.9988 0.0 0.0 0.0 -0.709453 44.6713 9.65281 -8.06744 0.247135 1.21242 31.8874 -12.9738 -4.31783 -0.168073 0.0 0.0 -0.0 0.0 -0.0 52.8963 1.81929 -7.73092 -5.41377 -0.184739 -0.810008 -5.88978 24.5515 -1.04232 -10.4752 0.0 0.0 0.0 0.0 0.0 
3530.11 631.279 -578.828 -28.3837 36.6822 18.6755 8.59967 0.225455 0.634469 8.59987 0.184626 0.647529 8.60154 0.144404 0.657668 8.60102 0.246456 0.62661 -13.8246 9.35666 -3.26069 -14.0946 19.8315 -0.117001 -0.0 0.0 -0.0 3.42154 10.7913 7.12043 -25.3736 -31.726 50.4861 1.65962 -39.4214 0.594618 -57.7151 -5.00004 5.02438 -9.76177 28.8182 -48.2916 -0.0 0.0 -0.0 12.0883 2.14104 -24.206 -65.6787 48.4018 -45.0948 0.181325 5.13284 -0.00812742 -23.9837 1.43021 -2.69005 9.63029 23.734 -62.9375 0.0 0.0 0.0 0.0887015 46.0662 9.18183 -10.4931 0.287811 1.58239 26.8844 -4.81973 -3.61556 6.35376 -0.0 -0.0 -0.0 0.0 -0.0 52.9092 1.57175 -8.01436 -8.89023 -0.262688 -1.33772 -1.66073 24.4604 -0.290697 -10.5362 0.0 0.0 0.0 0.0 0.0 
3512.17 626.999 -585.998 -27.8623 35.8656 17.6121 8.56718 0.316751 0.622339 8.56735 0.276509 0.641233 8.57007 0.236145 0.657169 8.56963 0.336967 0.61163 -12.6173 8.83162 -3.63329 -12.8029 19.0722 -0.85812 -0.0 0.0 -0.0 3.47207 8.51965 7.11973 -24.9371 -27.4358 53.4035 1.50743 -36.7477 0.500717 -57.1984 -4.93654 5.00545 -8.96355 21.395 -52.1303 -0.0 0.0 -0.0 11.511 5.81974 -23.1151 -61.7824 51.9347 -48.1767 0.22385 6.32776 -0.0123736 -25.1983 1.53147 -2.80826 9.36559 23.4844 -60.1098 0.0 0.0 0.0 0.93891 44.8913 8.90446 -14.288 0.319941 2.16367 29.4756 0.742351 -3.84904 6.32144 -0.0 -0.0 -0.0 0.0 -0.0 54.6813 1.82843 -7.50456 -15.7165 -0.322053 -2.38282 2.89321 22.7272 0.490394 -10.1002 0.0 0.0 0.0 0.0 0.0 
3499.47 625.615 -588.292 -26.5274 34.0612 14.7481 7.79211 0.537091 1.01323 7.79256 0.471532 1.04535 7.8003 0.391291 1.07795 7.79911 0.556614 1.00264 -12.3721 9.27423 -2.61746 -12.5713 19.2697 0.20772 -0.0 0.0 -0.0 2.94896 6.86972 6.10674 -21.6449 -27.4853 56.5805 1.26544 -32.0807 0.363839 -52.5258 -4.37058 4.80844 -9.21664 22.6301 -52.9267 -0.0 0.0 -0.0 11.5241 7.1782 -23.1779 -54.7329 51.3409 -50.714 0.178161 5.04373 -0.00784678 -26.822 1.67073 -2.96291 9.11711 23.3617 -57.4676 0.0 0.0 0.0 0.94968 44.2508 10.2499 -19.3441 0.302866 2.93899 29.2353 6.43521 -3.80579 7.77635 -0.0 -0.0 -0.0 0.0 -0.0 55.5732 4.77141 -7.65297 -18.3377 -0.311718 -2.78482 -0.758866 22.4501 -0.129648 -7.90613 0.0 0.0 0.0 0.0 0.0 
3484.32 629.279 -599.433 -26.4788 34.1242 14.7426 7.56753 0.642907 0.930618 7.56782 0.582389 0.969638 7.57707 0.503617 1.01279 7.57624 0.657241 0.920551 -12.1658 10.3758 -3.81749 -12.4036 22.1194 -0.644941 -0.0 0.0 -0.0 2.77591 8.00727 5.86152 -19.1561 -25.123 59.3831 1.17573 -30.2165 0.317428 -48.6832 -3.91827 4.61226 -8.79004 19.4068 -53.2086 -0.0 0.0 -0.0 11.9639 10.4182 -24.1949 -49.699 48.0832 -55.2164 0.170676 4.83287 -0.00720245 -27.2032 1.70405 -2.99864 8.52726 21.5579 -53.3705 0.0 0.0 0.0 4.78134 39.0747 8.56018 -24.5443 0.214087 3.73173 28.3776 17.4502 -3.78304 7.4182 -0.0 -0.0 -0.0 0.0 -0.0 55.6398 6.47521 -7.44836 -20.4622 -0.289858 -3.11004 -0.156335 21.5971 -0.0264323 -6.01806 0.0 0.0 0.0 0.0 0.0 
3451.31 626.177 -607.539 -25.7907 33.0037 13.168 7.55299 0.593289 0.81988 7.5532 0.539918 0.855968 7.56082 0.470032 0.896247 7.56021 0.605674 0.810774 -11.0624 9.72312 -4.45089 -11.2008 21.2954 -1.67382 -0.0 0.0 -0.0 2.19092 12.7271 5.13751 -19.6612 -26.0246 61.4829 1.07797 -28.1013 0.269788 -47.6618 -3.80033 4.55506 -8.10479 15.8864 -50.604 -0.0 0.0 -0.0 13.3263 25.2569 -26.5192 -39.6679 39.7636 -65.6281 0.186861 5.28866 -0.00863016 -24.2866 1.45523 -2.71973 8.10346 21.0492 -49.7084 0.0 0.0 0.0 6.33709 40.734 7.88297 -30.3607 0.0300809 4.60503 27.343 24.2153 -3.77727 8.29803 -0.0 -0.0 -0.0 0.0 -0.0 55.3987 7.05753 -6.06339 -25.686 -0.184985 -3.90452 6.64431 22.6501 1.1108 -3.74653 0.0 0.0 0.0 0.0 0.0 
3432.51 633.448 -617.179 -25.7254 34.0617 12.728 7.35893 0.76827 1.11444 7.35936 0.695803 1.16106 7.37262 0.597196 1.21472 7.37141 0.781533 1.10518 -10.3493 7.96955 -5.02523 -10.388 18.3787 -2.84521 -0.0 0.0 -0.0 1.84532 14.15 4.66293 -19.7419 -27.7741 62.9637 0.929958 -24.7339 0.203906 -51.8024 -4.28444 4.77383 -6.92309 7.37242 -47.6031 -0.0 0.0 -0.0 14.0559 26.4159 -28.0818 -36.8577 35.4179 -64.2742 0.221189 6.25315 -0.0120821 -22.4672 1.30735 -2.53952 8.35147 23.5969 -49.4841 0.0 0.0 0.0 10.1494 34.4759 7.23208 -35.7183 -0.217077 5.38962 24.2958 28.0541 -3.48641 6.62884 -0.0 -0.0 -0.0 0.0 -0.0 54.9674 8.59124 -4.54669 -27.9378 -0.117513 -4.24349 6.74168 24.0771 1.14395 -1.77002 0.0 0.0 0.0 0.0 0.0 
3419.47 638.96 -631.693 -26.3526 36.0654 13.967 7.15508 0.585632 1.29571 7.15588 0.502003 1.33034 7.16623 0.385069 1.36876 7.16412 0.59639 1.29079 -10.7982 8.7076 -6.50861 -10.8402 20.7382 -4.01468 -0.0 0.0 -0.0 1.11483 15.2777 3.57401 -21.0175 -32.5487 63.234 0.774979 -21.0018 0.143649 -52.3523 -4.34988 4.80024 -5.93871 1.40238 -42.9875 -0.0 0.0 -0.0 13.7543 26.5233 -27.3638 -33.8632 33.2924 -65.6422 0.215742 6.10032 -0.011496 -20.8938 1.18416 -2.38 7.78442 24.683 -43.4019 0.0 0.0 0.0 13.5384 28.0735 6.00975 -37.4173 -0.310684 5.6333 26.936 27.5659 -3.80578 5.52028 -0.0 -0.0 -0.0 0.0 -0.0 52.7725 10.8516 -4.34284 -26.7407 -0.155042 -4.06361 9.24787 21.218 1.50875 0.495319 -0.0 -0.0 0.0 0.0 0.0 
3404.77 638.265 -644.057 -28.4723 36.8464 16.1538 7.64142 0.483106 1.16269 7.64208 0.408148 1.19107 7.6494 0.313874 1.2193 7.64768 0.502488 1.15444 -9.82108 8.14622 -7.1575 -9.77525 20.1615 -4.99139 -0.0 0.0 -0.0 0.985825 16.6022 3.48582 -21.673 -31.8828 64.1956 0.675481 -18.501 0.110016 -52.4038 -4.35602 4.80268 -4.85134 -4.54396 -37.1614 -0.0 0.0 -0.0 13.7067 26.0871 -27.3071 -32.4842 33.0037 -66.5876 0.208301 5.89144 -0.0107188 -22.4413 1.30529 -2.53692 6.67768 21.5466 -36.9342 0.0 0.0 0.0 19.309 25.5037 3.12015 -41.5064 -0.565373 6.20785 27.4849 27.0066 -3.85878 5.74602 -0.0 -0.0 -0.0 0.0 -0.0 52.2566 9.46805 -3.75521 -26.47 -0.163007 -4.02283 12.7676 20.6365 2.04074 1.57911 -0.0 -0.0 0.0 0.0 0.0 
3383.7 637.522 -658.27 -30.6684 37.5215 18.1855 8.06388 0.473233 1.26023 8.06468 0.39209 1.28778 8.072 0.3 1.31229 8.06995 0.503471 1.24846 -7.41722 7.95817 -7.20646 -7.24564 19.9503 -5.55024 -0.0 0.0 -0.0 -0.0202874 18.9022 2.17844 -22.3509 -35.5766 64.4945 0.565594 -15.6519 0.0777383 -51.4042 -4.23722 4.75432 -4.16875 -10.1798 -34.4363 -0.0 0.0 -0.0 13.8549 25.9468 -27.6701 -34.4444 32.9469 -65.6756 0.356541 10.0165 -0.031245 -23.6583 1.40351 -2.65802 5.69431 18.0989 -31.6192 0.0 0.0 0.0 21.4813 22.4378 2.99284 -43.0669 -0.673319 6.42219 28.6765 27.0158 -4.00277 5.21735 -0.0 -0.0 -0.0 0.0 -0.0 52.1005 7.47841 -2.51939 -27.1346 -0.143109 -4.12288 15.1977 22.9827 2.45772 4.68598 -0.0 -0.0 0.0 0.0 0.0 
3371.8 637.63 -675.046 -32.8396 38.6833 20.5559 8.52316 0.391999 1.22848 8.52395 0.31304 1.25093 8.52923 0.233863 1.26812 8.52725 0.431189 1.21528 -8.7998 6.69558 -7.10804 -8.68832 17.4651 -5.47956 -0.0 0.0 -0.0 -0.477158 17.4331 1.3092 -22.8748 -31.1005 66.6134 0.561354 -15.5402 0.0765983 -52.8325 -4.40722 4.82278 -3.51505 -16.6517 -32.1163 -0.0 0.0 -0.0 13.5675 26.1087 -26.98 -31.8211 30.8136 -66.8996 0.402861 11.2862 -0.039807 -21.1094 1.20078 -2.40205 5.37598 16.8683 -29.9468 0.0 0.0 0.0 28.9064 21.1103 -0.684306 -52.6211 -1.45802 7.66413 31.0015 22.8658 -4.17193 4.24059 -0.0 -0.0 -0.0 0.0 -0.0 51.4918 6.9167 -2.64447 -27.6995 -0.125281 -4.20776 20.6856 21.158 3.19339 7.10307 -0.0 -0.0 0.0 0.0 0.0 
3353.55 637.685 -690.348 -34.2187 39.2383 22.1193 9.25507 0.31251 1.092 9.2557 0.242395 1.10967 9.25904 0.186497 1.12042 9.25747 0.361096 1.07691 -8.43845 5.77893 -5.6541 -8.36259 14.7582 -4.29814 -0.0 0.0 -0.0 -1.73675 19.614 -0.279771 -23.3384 -32.9609 67.8825 0.484839 -13.5054 0.0574081 -51.8983 -4.29584 4.77848 -2.54649 -21.1428 -26.5993 -0.0 0.0 -0.0 13.5476 26.189 -26.9238 -31.9861 30.9575 -66.015 0.596639 16.4656 -0.0863264 -21.8771 1.26063 -2.48008 4.05271 12.4116 -22.5634 0.0 0.0 0.0 36.7773 19.5546 -3.67773 -60.9464 -2.30304 8.62887 29.0046 21.3033 -3.91437 3.53623 -0.0 -0.0 -0.0 0.0 -0.0 48.8463 5.26773 -2.26731 -24.5249 -0.214552 -3.72879 23.0949 20.4144 3.4929 9.39106 -0.0 -0.0 0.0 0.0 0.0 
